<svg xmlns="http://www.w3.org/2000/svg" id="Layer_2" viewBox="0 0 57.73 49"><defs><style>.cls-1{fill:#fff;}</style></defs><g id="bacteria"><g><path class="cls-1" d="M40.5,25.56c-.39,.72-.85,1.4-1.37,2.03-1.83,2.22-2.97,4.93-3.56,7.75-.68,3.33-1.53,7.47-2.12,10.31-.2,.98-.73,1.82-1.46,2.41-.73,.59-1.65,.94-2.65,.94-1.94,0-3.62-1.32-4.08-3.2l-1.81-7.41c-.63-2.56-4.27-2.56-4.9,0l-1.81,7.41c-.23,.94-.76,1.74-1.48,2.3-.72,.57-1.63,.9-2.6,.9-1.99,0-3.71-1.39-4.11-3.35-.59-2.84-1.44-6.98-2.12-10.31-.59-2.82-1.73-5.53-3.56-7.75C.86,25.15-.26,21.94,.05,18.46,.58,12.46,5.46,7.58,11.47,7.05c1.84-.16,3.6,.07,5.21,.63,2.22,.77,4.58,.93,6.86,.47-.36,1.25-.54,2.55-.54,3.85,0,.2,0,.4,.01,.59-.67,.09-1.35,.13-2.01,.13-4.74,0-8.68-2.35-8.72-2.37-.48-.29-1.09-.14-1.37,.33-.29,.47-.14,1.09,.33,1.37,.18,.11,4.44,2.67,9.76,2.67,.74,0,1.49-.05,2.24-.14,1.22,6.51,7.02,11.42,13.76,11.42,1.18,0,2.36-.15,3.5-.44Z"></path><path class="cls-1" d="M37,24c-6.18,0-11.43-4.82-11.96-10.96-.03-.34-.04-.68-.04-1.04,0-1.81,.41-3.62,1.19-5.22,2.02-4.18,6.17-6.78,10.81-6.78,6.62,0,12,5.38,12,12,0,4.64-2.6,8.79-6.78,10.81-1.6,.78-3.41,1.19-5.22,1.19Zm0-22c-3.87,0-7.32,2.17-9.01,5.66-.65,1.33-.99,2.83-.99,4.34,0,.29,0,.57,.04,.86,.44,5.13,4.81,9.14,9.96,9.14,1.51,0,3.01-.34,4.34-.99,3.49-1.69,5.66-5.14,5.66-9.01,0-5.51-4.49-10-10-10Z"></path><rect class="cls-1" x="49.5" y="19.93" width="5" height="14.14" rx="2.5" ry="2.5" transform="translate(-3.86 44.68) rotate(-45)"></rect><path class="cls-1" d="M47,23c-.26,0-.51-.1-.71-.29l-2.22-2.22c-.39-.39-.39-1.02,0-1.41,.39-.39,1.02-.39,1.41,0l2.22,2.22c.39,.39,.39,1.02,0,1.41-.2,.2-.45,.29-.71,.29Z"></path><path class="cls-1" d="M37,20.12c-.66,0-1.11-.27-1.42-.47-.29-.18-.32-.19-.49-.16-.54,.1-1.06-.26-1.16-.8-.1-.54,.26-1.06,.8-1.16,.93-.17,1.51,.19,1.89,.42,.29,.18,.32,.19,.49,.16,.16-.03,.2-.06,.4-.32,.28-.36,.69-.89,1.62-1.06,.93-.17,1.51,.19,1.89,.42,.28,.17,.32,.19,.49,.16,.54-.1,1.06,.26,1.16,.81,.1,.54-.26,1.06-.81,1.16-.92,.17-1.51-.19-1.89-.42-.28-.17-.32-.19-.49-.16-.16,.03-.2,.06-.4,.32-.28,.36-.7,.89-1.62,1.06-.17,.03-.32,.04-.47,.04Z"></path><path class="cls-1" d="M34.98,12.87c-.2,0-.39-.06-.57-.18-.45-.31-.57-.94-.25-1.39,.54-.77,1.2-.93,1.64-1.04,.32-.08,.36-.09,.46-.23,.09-.14,.09-.19,.05-.51-.06-.45-.14-1.12,.39-1.9,.54-.77,1.2-.93,1.64-1.04,.32-.08,.36-.09,.46-.23,.31-.45,.94-.57,1.39-.25,.45,.31,.57,.94,.25,1.39-.54,.77-1.2,.93-1.64,1.04-.32,.08-.36,.09-.46,.23-.09,.13-.1,.17-.05,.51,.06,.45,.14,1.12-.39,1.9-.54,.77-1.2,.93-1.64,1.04-.32,.08-.36,.09-.46,.23-.19,.28-.51,.43-.82,.43Z"></path><circle class="cls-1" cx="30" cy="13" r="1"></circle><circle class="cls-1" cx="41" cy="13" r="1"></circle><circle class="cls-1" cx="35" cy="5" r="1"></circle></g></g></svg>