<svg xmlns="http://www.w3.org/2000/svg" id="Layer_2" viewBox="0 0 60 58"><defs><style>.cls-1{fill:#fff;}</style></defs><g id="whitening"><g><path class="cls-1" d="M49.5,32c0,.55-.45,1-1,1s-1-.45-1-1c0-4.14-3.36-7.5-7.5-7.5-.55,0-1-.45-1-1s.45-1,1-1c2,0,3.88-.78,5.31-2.19,.41-.41,.78-.89,1.1-1.41-1.91-1.58-4.29-2.62-6.88-2.85-1.84-.16-3.6,.07-5.21,.63-2.81,.97-5.83,.97-8.64,0-1.61-.56-3.37-.79-5.21-.63-6.01,.53-10.89,5.41-11.42,11.41-.31,3.48,.81,6.69,2.82,9.13,1.83,2.22,2.97,4.93,3.56,7.75,.68,3.33,1.53,7.47,2.12,10.31,.4,1.96,2.12,3.35,4.11,3.35,.97,0,1.88-.33,2.6-.9,.72-.56,1.25-1.36,1.48-2.3l1.81-7.41c.63-2.56,4.27-2.56,4.9,0l1.81,7.41c.46,1.88,2.14,3.2,4.08,3.2,1,0,1.92-.35,2.65-.94,.73-.59,1.26-1.43,1.46-2.41,.59-2.84,1.44-6.98,2.12-10.31,.59-2.82,1.73-5.53,3.56-7.75,1.99-2.42,3.11-5.59,2.83-9.03-.95,1.29-1.46,2.82-1.46,4.44Zm-19.5-8.28c-5.32,0-9.58-2.56-9.76-2.67-.47-.28-.62-.9-.33-1.37,.28-.47,.9-.62,1.37-.33,.04,.02,3.98,2.37,8.72,2.37s8.68-2.35,8.72-2.37c.47-.29,1.09-.14,1.37,.33,.29,.47,.14,1.09-.33,1.37-.18,.11-4.44,2.67-9.76,2.67Z"></path><path class="cls-1" d="M5,30c0-.55-.45-1-1-1H1c-.55,0-1,.45-1,1s.45,1,1,1h3c.55,0,1-.45,1-1Z"></path><path class="cls-1" d="M59,29h-3c-.55,0-1,.45-1,1s.45,1,1,1h3c.55,0,1-.45,1-1s-.45-1-1-1Z"></path><path class="cls-1" d="M30,5c.55,0,1-.45,1-1V1c0-.55-.45-1-1-1s-1,.45-1,1v3c0,.55,.45,1,1,1Z"></path><path class="cls-1" d="M6.98,42.13l-2.6,1.5c-.48,.28-.64,.89-.37,1.37,.19,.32,.52,.5,.87,.5,.17,0,.34-.04,.5-.13l2.6-1.5c.48-.28,.64-.89,.37-1.37-.28-.48-.89-.64-1.37-.37Z"></path><path class="cls-1" d="M52.52,18c.17,0,.34-.04,.5-.13l2.6-1.5c.48-.28,.64-.89,.37-1.37-.28-.48-.89-.64-1.37-.37l-2.6,1.5c-.48,.28-.64,.89-.37,1.37,.19,.32,.52,.5,.87,.5Z"></path><path class="cls-1" d="M16.13,7.98c.19,.32,.52,.5,.87,.5,.17,0,.34-.04,.5-.13,.48-.28,.64-.89,.37-1.37l-1.5-2.6c-.28-.48-.89-.64-1.37-.37-.48,.28-.64,.89-.37,1.37l1.5,2.6Z"></path><path class="cls-1" d="M42.5,8.35c.16,.09,.33,.13,.5,.13,.35,0,.68-.18,.87-.5l1.5-2.6c.28-.48,.11-1.09-.37-1.37-.48-.28-1.09-.11-1.37,.37l-1.5,2.6c-.28,.48-.11,1.09,.37,1.37Z"></path><path class="cls-1" d="M7.98,16.13l-2.6-1.5c-.48-.28-1.09-.11-1.37,.37-.28,.48-.11,1.09,.37,1.37l2.6,1.5c.16,.09,.33,.13,.5,.13,.35,0,.68-.18,.87-.5,.28-.48,.11-1.09-.37-1.37Z"></path><path class="cls-1" d="M55.61,43.63l-2.6-1.5c-.48-.28-1.09-.11-1.37,.37-.28,.48-.11,1.09,.37,1.37l2.6,1.5c.16,.09,.33,.13,.5,.13,.35,0,.68-.18,.87-.5,.28-.48,.11-1.09-.37-1.37Z"></path><path class="cls-1" d="M48.5,30c0-1.79,.73-3.42,1.9-4.6,.05-.05,.1-.09,.15-.13h0c1.16-1.1,2.73-1.77,4.45-1.77-1.79,0-3.42-.73-4.6-1.9-1.17-1.18-1.9-2.81-1.9-4.6,0,1.13-.29,2.2-.8,3.13-.3,.54-.67,1.04-1.1,1.47-1.18,1.17-2.81,1.9-4.6,1.9,3.59,0,6.5,2.91,6.5,6.5Z"></path></g></g></svg>