<svg xmlns="http://www.w3.org/2000/svg" id="Layer_2" viewBox="0 0 50 50"><defs><style>.cls-1{fill:#fff;}</style></defs><g id="tooth_insurance"><g><path class="cls-1" d="M49.94,13.65C49.31,6.5,43.5,.69,36.35,.06c-2.19-.19-4.29,.09-6.21,.75-3.35,1.16-6.93,1.16-10.28,0C17.94,.15,15.84-.13,13.65,.06,6.5,.69,.69,6.5,.06,13.65c-.36,4.14,.96,7.96,3.36,10.87,2.18,2.64,3.54,5.86,4.23,9.22,.82,3.96,1.83,8.89,2.53,12.28,.48,2.32,2.52,3.98,4.89,3.98,1.15,0,2.23-.39,3.09-1.06,.86-.68,1.5-1.63,1.77-2.75l2.16-8.82c.74-3.05,5.08-3.05,5.82,0l2.16,8.82c.55,2.24,2.55,3.81,4.86,3.81,1.02,0,1.97-.31,2.77-.84-3.52-2.43-5.7-6.76-5.7-11.36v-8.8c0-.43,.28-.81,.68-.95l9-3c.21-.07,.43-.07,.64,0l3.11,1.04c.35-.54,.74-1.07,1.15-1.57,2.4-2.91,3.72-6.73,3.36-10.87Zm-13.42-7.8c-.21,.13-5.24,3.15-11.52,3.15s-11.31-3.02-11.52-3.15c-.47-.28-.62-.9-.33-1.37,.28-.47,.9-.62,1.37-.33,.05,.02,4.77,2.85,10.48,2.85s10.43-2.83,10.48-2.85c.47-.29,1.09-.14,1.37,.33,.29,.47,.14,1.09-.33,1.37Z"></path><path class="cls-1" d="M42,27.05l-8,2.67v8.08c0,4.04,1.93,7.82,5.04,9.86,.91,.62,1.9,1.05,2.96,1.31,4.65-1.15,8-5.81,8-11.17v-8.08l-8-2.67Zm4.71,8.66l-5,5c-.2,.19-.45,.29-.71,.29s-.51-.1-.71-.29l-2-2c-.39-.39-.39-1.03,0-1.42,.39-.39,1.03-.39,1.42,0l1.29,1.3,4.29-4.3c.39-.39,1.03-.39,1.42,0,.39,.39,.39,1.03,0,1.42Z"></path></g></g></svg>